<?xml version="1.0" encoding="UTF-8" standalone="no" ?>
<!DOCTYPE svg PUBLIC "-//W3C//DTD SVG 1.1//EN" "http://www.w3.org/Graphics/SVG/1.1/DTD/svg11.dtd">
<svg xmlns="http://www.w3.org/2000/svg" xmlns:xlink="http://www.w3.org/1999/xlink" version="1.1" width="500" height="500" viewBox="0 0 500 500" xml:space="preserve">
<desc>Created with Fabric.js 4.6.0</desc>
<defs>
</defs>
<g transform="matrix(0.2 0.2 -2.36 2.36 162.18 179.86)" id="zAMJ9uoN60ZTeBxUYMXJZ"  >
<path style="stroke: rgb(130,149,94); stroke-width: 0; stroke-dasharray: none; stroke-linecap: butt; stroke-dashoffset: 0; stroke-linejoin: miter; stroke-miterlimit: 4; fill: rgb(0,0,0); fill-rule: nonzero; opacity: 1;" vector-effect="non-scaling-stroke"  transform=" translate(0, 0)" d="M -59.9359 -49.53885 C -59.9359 -55.28098 -6.267469999999996 -59.93589 59.93589000000001 -59.93589 L 59.93589000000001 -59.93589 L 59.93589000000001 59.935900000000004 L -59.9359 59.935900000000004 z" stroke-linecap="round" />
</g>
<g transform="matrix(1.7 0 0 1.7 191.72 206.08)" id="BQAklI_wYUFvtYv1DmB26"  >
<path style="stroke: rgb(127,207,236); stroke-width: 0; stroke-dasharray: none; stroke-linecap: butt; stroke-dashoffset: 0; stroke-linejoin: miter; stroke-miterlimit: 4; fill: rgb(0,0,0); fill-rule: nonzero; opacity: 1;" vector-effect="non-scaling-stroke"  transform=" translate(0, 0)" d="M 91.46475 -27.71436 C 91.46475 38.07252 38.072509999999994 91.46476 -27.714370000000002 91.46476 C -51.15665 91.46476 -73.02511000000001 84.68524 -91.46476000000001 72.98116999999999 L -77.04596000000001 58.562369999999994 C -62.50705000000001 66.89809 -45.66399000000001 71.66476 -27.71437000000001 71.66476 C 27.142909999999993 71.66476 71.66475 27.142920000000004 71.66475 -27.71436 C 71.66475 -45.663979999999995 66.89808 -62.507039999999996 58.56236 -77.04595 L 72.98116 -91.46475000000001 C 84.68523 -73.02509 91.46475000000001 -51.15663000000001 91.46475000000001 -27.714360000000006 z" stroke-linecap="round" />
</g>
<g transform="matrix(0.2 0.2 -2.36 2.36 326.68 344.5)" id="yKesvRpYcXUeYv11LinHd"  >
<path style="stroke: rgb(130,149,94); stroke-width: 0; stroke-dasharray: none; stroke-linecap: butt; stroke-dashoffset: 0; stroke-linejoin: miter; stroke-miterlimit: 4; fill: rgb(0,0,0); fill-rule: nonzero; opacity: 1;" vector-effect="non-scaling-stroke"  transform=" translate(0, 0)" d="M -59.9359 -59.9359 L -59.9359 -59.9359 L -59.9359 -59.9359 C 6.267460000000007 -59.9359 59.93589000000001 -55.280989999999996 59.93589000000001 -49.53886 L 59.93589000000001 59.93589 L -59.9359 59.93589 z" stroke-linecap="round" />
</g>
<g transform="matrix(1.7 0 0 1.7 8.45 309.18)" id="OZvz9OAewBe3adk2MUciH"  >
<path style="stroke: rgb(184,82,151); stroke-width: 0; stroke-dasharray: none; stroke-linecap: butt; stroke-dashoffset: 0; stroke-linejoin: miter; stroke-miterlimit: 4; fill: rgb(0,0,0); fill-rule: nonzero; opacity: 1;" vector-effect="non-scaling-stroke"  transform=" translate(0, 0)" d="M 0 0.00001 L 0 0.00001 C 0 0.00001 0 0 0 0 z" stroke-linecap="round" />
</g>
<g transform="matrix(1.7 0 0 1.7 261.75 56.71)" id="JivcOQEicDXDAgcoatKSc"  >
<path style="stroke: rgb(117,37,216); stroke-width: 0; stroke-dasharray: none; stroke-linecap: butt; stroke-dashoffset: 0; stroke-linejoin: miter; stroke-miterlimit: 4; fill: rgb(0,0,0); fill-rule: nonzero; opacity: 1;" vector-effect="non-scaling-stroke"  transform=" translate(0, 0)" d="M 0 0 C 0.00001 0 0.00001 0 0.00002 0 L 0.00001 0.00001 z" stroke-linecap="round" />
</g>
<g transform="matrix(1.7 0 0 1.7 117.92 388.78)" id="7Cv4SVBmb9-iW_jrwFSGP"  >
<path style="stroke: rgb(184,82,151); stroke-width: 0; stroke-dasharray: none; stroke-linecap: butt; stroke-dashoffset: 0; stroke-linejoin: miter; stroke-miterlimit: 4; fill: rgb(0,0,0); fill-rule: nonzero; opacity: 1;" vector-effect="non-scaling-stroke"  transform=" translate(0, 0)" d="M -64.27622 -46.73562 C -53.192589999999996 9.05735 -9.203369999999993 53.04657 46.58961000000001 64.1302 L 46.581410000000005 64.122 L 64.27621 46.4272 C 26.663930000000008 43.34107 -6.0985199999999935 23.04685 -26.115759999999995 -6.56006 C -37.406319999999994 -23.2596 -44.64207999999999 -42.92191 -46.40624 -64.1302 L -64.03852 -46.49792 z" stroke-linecap="round" />
</g>
<g transform="matrix(1.7 0 0 1.7 294.68 312.41)" id="uWF6cLfJ4x-r6rQS1o5Y4"  >
<path style="stroke: rgb(127,207,236); stroke-width: 0; stroke-dasharray: none; stroke-linecap: butt; stroke-dashoffset: 0; stroke-linejoin: miter; stroke-miterlimit: 4; fill: rgb(0,0,0); fill-rule: nonzero; opacity: 1;" vector-effect="non-scaling-stroke"  transform=" translate(-95.13, -95.13)" d="M 0 119.17912 C 0 115.55481999999999 0.16205 111.96815 0.47929 108.42594 C 7.3321 108.39704 14.04903 107.78896999999999 20.58364 106.64819 C 20.066489999999998 110.75275 19.80001 114.935 19.80001 119.17912 C 19.80001 140.34009 26.42485 159.96314999999998 37.71228 176.08603 L 23.53294 190.26537 C 8.75112 170.41508 0 145.81286 0 119.17912999999999 z M 119.17913 19.8 C 117.84416 19.8 116.51532 19.82636 115.19308 19.878610000000002 C 116.90149 13.449390000000001 118.08567 6.8073000000000015 118.69699999999999 0.0009600000000027364 C 118.85763999999999 0.0003300000000027364 119.01832999999999 2.7364178631361646e-15 119.17911999999998 2.7364178631361646e-15 L 119.17912999999999 2.7364178631361646e-15 C 145.81286 2.7364178631361646e-15 170.41508 8.751120000000004 190.26536 23.532940000000004 L 176.08603 37.712270000000004 C 159.96314999999998 26.424840000000003 140.34009 19.800000000000004 119.17911999999998 19.800000000000004 z" stroke-linecap="round" />
</g>
<g transform="matrix(0.09 0.09 -0.44 0.44 265.5 173.49)" id="upnLo2cur7WtDdLMn6gzL"  >
<path style="stroke: rgb(109,95,34); stroke-width: 0; stroke-dasharray: none; stroke-linecap: butt; stroke-dashoffset: 0; stroke-linejoin: miter; stroke-miterlimit: 4; fill: rgb(0,0,0); fill-rule: nonzero; opacity: 1;" vector-effect="non-scaling-stroke"  transform=" translate(0, 0)" d="M 0 -55.12821 C 30.43077 -55.12821 55.12821 -30.430770000000003 55.12821 0 C 55.12821 30.43077 30.430770000000003 55.12821 0 55.12821 C -30.43077 55.12821 -55.12821 30.430770000000003 -55.12821 0 C -55.12821 -30.43077 -30.430770000000003 -55.12821 0 -55.12821 z" stroke-linecap="round" />
</g>
<g transform="matrix(0.1 0.1 -0.43 0.43 212.17 226.48)" id="2ytlXbT2i9xZfQN1X8a2v"  >
<path style="stroke: rgb(109,95,34); stroke-width: 0; stroke-dasharray: none; stroke-linecap: butt; stroke-dashoffset: 0; stroke-linejoin: miter; stroke-miterlimit: 4; fill: rgb(0,0,0); fill-rule: nonzero; opacity: 1;" vector-effect="non-scaling-stroke"  transform=" translate(0, 0)" d="M 0 -55.12821 C 30.43077 -55.12821 55.12821 -30.430770000000003 55.12821 0 C 55.12821 30.43077 30.430770000000003 55.12821 0 55.12821 C -30.43077 55.12821 -55.12821 30.430770000000003 -55.12821 0 C -55.12821 -30.43077 -30.430770000000003 -55.12821 0 -55.12821 z" stroke-linecap="round" />
</g>
<g transform="matrix(0.1 0.1 -0.43 0.43 261.75 219.99)" id="L-p-xFVLn1g41gvkkomR6"  >
<path style="stroke: rgb(109,95,34); stroke-width: 0; stroke-dasharray: none; stroke-linecap: butt; stroke-dashoffset: 0; stroke-linejoin: miter; stroke-miterlimit: 4; fill: rgb(0,0,0); fill-rule: nonzero; opacity: 1;" vector-effect="non-scaling-stroke"  transform=" translate(0, 0)" d="M 0 -55.12821 C 30.43077 -55.12821 55.12821 -30.430770000000003 55.12821 0 C 55.12821 30.43077 30.430770000000003 55.12821 0 55.12821 C -30.43077 55.12821 -55.12821 30.430770000000003 -55.12821 0 C -55.12821 -30.43077 -30.430770000000003 -55.12821 0 -55.12821 z" stroke-linecap="round" />
</g>
<g transform="matrix(0.1 0.1 -0.43 0.43 202.16 278.4)" id="laJIomSo8T9Uog3QlM5wz"  >
<path style="stroke: rgb(109,95,34); stroke-width: 0; stroke-dasharray: none; stroke-linecap: butt; stroke-dashoffset: 0; stroke-linejoin: miter; stroke-miterlimit: 4; fill: rgb(0,0,0); fill-rule: nonzero; opacity: 1;" vector-effect="non-scaling-stroke"  transform=" translate(0, 0)" d="M 0 -55.12821 C 30.43077 -55.12821 55.12821 -30.430770000000003 55.12821 0 C 55.12821 30.43077 30.430770000000003 55.12821 0 55.12821 C -30.43077 55.12821 -55.12821 30.430770000000003 -55.12821 0 C -55.12821 -30.43077 -30.430770000000003 -55.12821 0 -55.12821 z" stroke-linecap="round" />
</g>
<g transform="matrix(0.1 0.1 -0.43 0.43 159.11 279.57)" id="7UfGWzhxfo2zI03wI_SwU"  >
<path style="stroke: rgb(109,95,34); stroke-width: 0; stroke-dasharray: none; stroke-linecap: butt; stroke-dashoffset: 0; stroke-linejoin: miter; stroke-miterlimit: 4; fill: rgb(0,0,0); fill-rule: nonzero; opacity: 1;" vector-effect="non-scaling-stroke"  transform=" translate(0, 0)" d="M 0 -55.12821 C 30.43077 -55.12821 55.12821 -30.430770000000003 55.12821 0 C 55.12821 30.43077 30.430770000000003 55.12821 0 55.12821 C -30.43077 55.12821 -55.12821 30.430770000000003 -55.12821 0 C -55.12821 -30.43077 -30.430770000000003 -55.12821 0 -55.12821 z" stroke-linecap="round" />
</g>
<g transform="matrix(0.1 0.1 -0.43 0.43 217.53 173.47)" id="c-nNVUlVloK8aQCRyTd3A"  >
<path style="stroke: rgb(109,95,34); stroke-width: 0; stroke-dasharray: none; stroke-linecap: butt; stroke-dashoffset: 0; stroke-linejoin: miter; stroke-miterlimit: 4; fill: rgb(0,0,0); fill-rule: nonzero; opacity: 1;" vector-effect="non-scaling-stroke"  transform=" translate(0, 0)" d="M 0 -55.12821 C 30.43077 -55.12821 55.12821 -30.430770000000003 55.12821 0 C 55.12821 30.43077 30.430770000000003 55.12821 0 55.12821 C -30.43077 55.12821 -55.12821 30.430770000000003 -55.12821 0 C -55.12821 -30.43077 -30.430770000000003 -55.12821 0 -55.12821 z" stroke-linecap="round" />
</g>
<g transform="matrix(0.1 0.1 -0.43 0.43 145.3 196.76)" id="i8T-zM_IgVcKyU6LWOkv9"  >
<path style="stroke: rgb(109,95,34); stroke-width: 0; stroke-dasharray: none; stroke-linecap: butt; stroke-dashoffset: 0; stroke-linejoin: miter; stroke-miterlimit: 4; fill: rgb(0,0,0); fill-rule: nonzero; opacity: 1;" vector-effect="non-scaling-stroke"  transform=" translate(0, 0)" d="M 0 -55.12821 C 30.43077 -55.12821 55.12821 -30.430770000000003 55.12821 0 C 55.12821 30.43077 30.430770000000003 55.12821 0 55.12821 C -30.43077 55.12821 -55.12821 30.430770000000003 -55.12821 0 C -55.12821 -30.43077 -30.430770000000003 -55.12821 0 -55.12821 z" stroke-linecap="round" />
</g>
<g transform="matrix(0.1 0.1 -0.43 0.43 104.1 284.9)" id="55j8smtXikoQauT7XHYCQ"  >
<path style="stroke: rgb(109,95,34); stroke-width: 0; stroke-dasharray: none; stroke-linecap: butt; stroke-dashoffset: 0; stroke-linejoin: miter; stroke-miterlimit: 4; fill: rgb(0,0,0); fill-rule: nonzero; opacity: 1;" vector-effect="non-scaling-stroke"  transform=" translate(0, 0)" d="M 0 -55.12821 C 30.43077 -55.12821 55.12821 -30.430770000000003 55.12821 0 C 55.12821 30.43077 30.430770000000003 55.12821 0 55.12821 C -30.43077 55.12821 -55.12821 30.430770000000003 -55.12821 0 C -55.12821 -30.43077 -30.430770000000003 -55.12821 0 -55.12821 z" stroke-linecap="round" />
</g>
<g transform="matrix(0.1 0.1 -0.43 0.43 160.81 229.52)" id="fIOX5LASC2cdsBwPmnPyJ"  >
<path style="stroke: rgb(109,95,34); stroke-width: 0; stroke-dasharray: none; stroke-linecap: butt; stroke-dashoffset: 0; stroke-linejoin: miter; stroke-miterlimit: 4; fill: rgb(0,0,0); fill-rule: nonzero; opacity: 1;" vector-effect="non-scaling-stroke"  transform=" translate(0, 0)" d="M 0 -55.12821 C 30.43077 -55.12821 55.12821 -30.430770000000003 55.12821 0 C 55.12821 30.43077 30.430770000000003 55.12821 0 55.12821 C -30.43077 55.12821 -55.12821 30.430770000000003 -55.12821 0 C -55.12821 -30.43077 -30.430770000000003 -55.12821 0 -55.12821 z" stroke-linecap="round" />
</g>
<g transform="matrix(0.1 0.1 -0.43 0.43 270.58 120.4)" id="kaxd0G--d28Pzqz2_eZra"  >
<path style="stroke: rgb(109,95,34); stroke-width: 0; stroke-dasharray: none; stroke-linecap: butt; stroke-dashoffset: 0; stroke-linejoin: miter; stroke-miterlimit: 4; fill: rgb(0,0,0); fill-rule: nonzero; opacity: 1;" vector-effect="non-scaling-stroke"  transform=" translate(0, 0)" d="M 0 -55.12821 C 30.43077 -55.12821 55.12821 -30.430770000000003 55.12821 0 C 55.12821 30.43077 30.430770000000003 55.12821 0 55.12821 C -30.43077 55.12821 -55.12821 30.430770000000003 -55.12821 0 C -55.12821 -30.43077 -30.430770000000003 -55.12821 0 -55.12821 z" stroke-linecap="round" />
</g>
<g transform="matrix(0.69 0.69 -0.69 0.69 382.24 47.62)" id="_m-gknRnomP_FIgKm3mP2"  >
<path style="stroke: rgb(122,209,135); stroke-width: 0; stroke-dasharray: none; stroke-linecap: butt; stroke-dashoffset: 0; stroke-linejoin: miter; stroke-miterlimit: 4; fill: rgb(0,0,0); fill-rule: nonzero; opacity: 1;" vector-effect="non-scaling-stroke"  transform=" translate(0, 0)" d="M 0 -24.49065 C 23.35385 -24.49065 42.3077 -5.5367999999999995 42.3077 17.81705 C 42.3077 20.087629999999997 42.12853 22.31662 41.78357999999999 24.49064 C 38.580529999999996 4.30397 21.08326999999999 -11.14347 -7.105427357601002e-15 -11.14347 C -21.083270000000006 -11.14347 -38.58053000000001 4.30397 -41.78358000000001 24.49064 C -42.12854000000001 22.31662 -42.30770000000001 20.087629999999997 -42.30770000000001 17.81705 C -42.30770000000001 -5.536800000000003 -23.353850000000012 -24.49065 -1.4210854715202004e-14 -24.49065 z" stroke-linecap="round" />
</g>
<g transform="matrix(0.69 0.69 -0.69 0.69 442.5 98.45)" id="3kFV9FQ5db7cz22CDv7QJ"  >
<path style="stroke: rgb(122,209,135); stroke-width: 0; stroke-dasharray: none; stroke-linecap: butt; stroke-dashoffset: 0; stroke-linejoin: miter; stroke-miterlimit: 4; fill: rgb(0,0,0); fill-rule: nonzero; opacity: 1;" vector-effect="non-scaling-stroke"  transform=" translate(-42.31, -24.49)" d="M 42.3077 0 C 65.66155 0 84.6154 18.95385 84.6154 42.3077 C 84.6154 44.57828 84.43623 46.807269999999995 84.09128 48.981289999999994 C 80.88823 28.794619999999995 63.390969999999996 13.347179999999994 42.3077 13.347179999999994 C 21.224429999999998 13.347179999999994 3.727169999999994 28.794619999999995 0.5241199999999964 48.981289999999994 C 0.17915999999999638 46.807269999999995 -3.6637359812630166e-15 44.57827999999999 -3.6637359812630166e-15 42.3077 C -3.6637359812630166e-15 18.953849999999996 18.953849999999996 0 42.30769999999999 0 z" stroke-linecap="round" />
</g>
<g transform="matrix(1.7 -0.09 0.09 1.7 319.76 47.04)" id="9FESsdXSUbRCplwT9DjiX"  >
<path style="stroke: rgb(122,209,135); stroke-width: 0; stroke-dasharray: none; stroke-linecap: butt; stroke-dashoffset: 0; stroke-linejoin: miter; stroke-miterlimit: 4; fill: rgb(0,0,0); fill-rule: nonzero; opacity: 1;" vector-effect="non-scaling-stroke"  transform=" translate(-21.82, -16.48)" d="M 36.58286 7.05959 C 43.578619999999994 14.05535 45.375 24.29131 41.971999999999994 32.95112 L 38.08425 32.43099 C 38.95191 25.31926 36.658249999999995 17.894180000000002 31.203259999999997 12.43919 C 22.70563 3.941560000000001 9.427239999999998 3.11538 -3.552713678800501e-15 9.96064 C 0.7371999999999964 8.945359999999999 1.5633899999999965 7.97475 2.4785499999999963 7.05959 C 11.891339999999996 -2.3531999999999993 27.170069999999996 -2.3531999999999993 36.58286 7.05959 z" stroke-linecap="round" />
</g>
<g transform="matrix(0.61 0.61 -0.61 0.61 366.35 136.58)" id="NfKTzaco5P3gDWgHlp8oi"  >
<path style="stroke: rgb(0,0,0); stroke-width: 7; stroke-dasharray: none; stroke-linecap: butt; stroke-dashoffset: 0; stroke-linejoin: miter; stroke-miterlimit: 4; fill: none; fill-rule: nonzero; opacity: 1;" vector-effect="non-scaling-stroke"  transform=" translate(0, 0)" d="M -36.39955 -0.44219 C -38.54963 -7.399 -36.13375 -14.95851 -30.347679999999997 -19.37907 L -12.105319999999995 -33.31624 L -12.105319999999995 -33.31624 C -4.945779999999996 -38.78613 4.989330000000006 -38.78613 12.148870000000006 -33.31624 L 30.241530000000004 -19.493450000000003 L 30.241530000000004 -19.493450000000003 C 36.11755 -15.004170000000002 38.570980000000006 -7.327150000000003 36.387480000000004 -0.26220000000000354 L 30.32766 19.344959999999997 L 30.32766 19.344959999999997 C 27.006590000000003 30.090619999999998 17.071730000000002 37.418659999999996 5.824570000000001 37.418659999999996 L -16.62559 37.418659999999996 L -16.62559 37.418659999999996 C -21.42515 37.418659999999996 -25.6647 34.291529999999995 -27.08191 29.705979999999997 z" stroke-linecap="round" />
</g>
<g transform="matrix(1.7 0 0 1.7 351.38 100.05)" id="J4qVVFp_KXnyM-n17Tx69"  >
<path style="stroke: rgb(0,0,0); stroke-width: 7; stroke-dasharray: none; stroke-linecap: butt; stroke-dashoffset: 0; stroke-linejoin: miter; stroke-miterlimit: 4; fill: none; fill-rule: nonzero; opacity: 1;" vector-effect="non-scaling-stroke"  transform=" translate(-19.57, -17.95)" d="M 8.15754 4.72522 C 9.89096 1.4410600000000002 13.48833 -0.4138599999999997 17.169089999999997 0.07857000000000003 L 28.773819999999997 1.63114 C 33.328289999999996 2.24047 36.911139999999996 5.82331 37.52048 10.3778 L 39.0603 21.88729 C 39.20984 23.00503 39.146229999999996 24.1152 38.8944 25.16945 C 38.152989999999996 24.83303 37.365469999999995 24.578590000000002 36.54322 24.41748 L 26.399029999999996 22.4298 C 22.579349999999998 21.68136 18.736469999999997 23.60848 17.051689999999994 27.11726 L 12.832889999999994 35.90353 C 11.711159999999994 35.306470000000004 10.663739999999994 34.538540000000005 9.731049999999993 33.60584 L 1.634969999999992 25.50976 C -0.09586000000000805 23.77893 -0.4970300000000081 21.122320000000002 0.645539999999992 18.95758 z" stroke-linecap="round" />
</g>
<g transform="matrix(1.7 0 0 1.7 471.23 178.72)" id="CCuH3z4pdEbtJzusOcOyb"  >
<path style="stroke: rgb(122,209,135); stroke-width: 0; stroke-dasharray: none; stroke-linecap: butt; stroke-dashoffset: 0; stroke-linejoin: miter; stroke-miterlimit: 4; fill: rgb(0,0,0); fill-rule: nonzero; opacity: 1;" vector-effect="non-scaling-stroke"  transform=" translate(-11.93, -21.75)" d="M 17.83386 6.02386 C 26.74277 14.932770000000001 25.642480000000003 30.493869999999998 15.377870000000001 40.75847 C 14.379890000000001 41.75645 13.331840000000001 42.6678 12.244720000000001 43.491730000000004 C 19.89539 33.3973 20.010170000000002 19.932990000000004 11.96742 11.890260000000005 C 9.02857 8.951410000000005 5.36584 7.101760000000005 1.4081400000000013 6.310960000000005 L 0.5859500000000013 2.1148900000000053 C 0.4525100000000013 1.4338600000000052 0.2550400000000013 0.7766700000000053 0.000010000000001286757 0.14976000000000522 C 6.625780000000002 -0.5776799999999948 13.149410000000001 1.3394000000000053 17.83384 6.023830000000005 z" stroke-linecap="round" />
</g>
<g transform="matrix(1.7 0 0 1.7 408.86 107.52)" id="PIgOfY5AM4oBv964Z24TY"  >
<path style="stroke: rgb(0,0,0); stroke-width: 7; stroke-dasharray: none; stroke-linecap: butt; stroke-dashoffset: 0; stroke-linejoin: miter; stroke-miterlimit: 4; fill: rgb(255,255,255); fill-opacity: 0; fill-rule: nonzero; opacity: 1;" vector-effect="non-scaling-stroke"  transform=" translate(0, 0)" d="M -15.36015 -11.29582 C 5.1526700000000005 -11.29582 7.098140000000001 -11.21297 10.944289999999999 -6.084760000000001 C 14.790439999999998 -0.9565500000000009 15.824469999999998 3.2671399999999995 15.18344 6.472259999999999 C 14.542409999999999 9.677389999999999 12.66808 10.654789999999998 6.8988499999999995 11.29581" stroke-linecap="round" />
</g>
<g transform="matrix(0.6 0.6 -0.53 0.53 425.33 155.8)" id="Z0DIwl167cZy4XLi6SGMK"  >
<path style="stroke: rgb(0,0,0); stroke-width: 7; stroke-dasharray: none; stroke-linecap: butt; stroke-dashoffset: 0; stroke-linejoin: miter; stroke-miterlimit: 4; fill: none; fill-rule: nonzero; opacity: 1;" vector-effect="non-scaling-stroke"  transform=" translate(0, 0)" d="M -35.59304 2.25486 C -38.17258 -6.09151 -35.463280000000005 -15.364239999999999 -29.002990000000004 -20.2999 L -11.845920000000003 -33.4079 L -11.845920000000003 -33.4079 C -4.666790000000003 -38.89275 4.719869999999997 -38.89275 11.898989999999998 -33.4079 L 28.88553 -20.430189999999996 L 28.88553 -20.430189999999996 C 35.44624 -15.417809999999996 38.19766 -6.000939999999996 35.57802 2.4751800000000053 L 30.97455 17.370180000000005 L 30.97455 17.370180000000005 C 27.2435 29.442380000000007 17.21114 37.521550000000005 5.9514700000000005 37.521550000000005 L -16.67295 37.521550000000005 L -16.67295 37.521550000000005 C -21.47784 37.521550000000005 -25.759 34.073890000000006 -27.35117 28.922260000000005 z" stroke-linecap="round" />
</g>
</svg>